<svg xmlns="http://www.w3.org/2000/svg" viewBox="0 0 36.853333 37.333332" height="37.333332" width="36.853333" xml:space="preserve" id="svg2" version="1.1"><defs id="defs6"><clipPath id="clipPath18" clipPathUnits="userSpaceOnUse"><path id="path16" d="m 14,15.637 v -3.482 h 4.843 C 18.635,11.03 18.001,10.076 17.048,9.438 v 0 -2.258 h 2.909 c 1.701,1.567 2.683,3.875 2.683,6.615 v 0 c 0,0.638 -0.057,1.252 -0.163,1.842 v 0 z"/></clipPath><clipPath id="clipPath28" clipPathUnits="userSpaceOnUse"><path id="path26" d="M 5.957,12.29 V 9.958 C 7.439,7.016 10.481,5 14,5 v 0 c 2.43,0 4.467,0.806 5.957,2.18 v 0 L 17.048,9.438 C 16.241,8.898 15.211,8.58 14,8.58 v 0 c -2.344,0 -4.329,1.583 -5.036,3.71 v 0 z"/></clipPath><clipPath id="clipPath38" clipPathUnits="userSpaceOnUse"><path id="path36" d="M 5.957,18.041 C 5.348,16.826 5,15.452 5,14 v 0 C 5,12.548 5.348,11.174 5.957,9.958 v 0 L 8.964,12.29 C 8.784,12.83 8.681,13.406 8.681,14 v 0 c 0,0.594 0.103,1.17 0.283,1.71 v 0 2.331 z"/></clipPath><clipPath id="clipPath48" clipPathUnits="userSpaceOnUse"><path id="path46" d="M 5.957,18.041 8.964,15.71 c 0.707,2.127 2.692,3.71 5.036,3.71 v 0 c 1.322,0 2.508,-0.453 3.44,-1.345 v 0 l 2.581,2.581 C 18.464,22.109 16.426,23 14,23 v 0 C 10.481,23 7.439,20.984 5.957,18.041"/></clipPath></defs><g transform="matrix(1.3333333,0,0,-1.3333333,0,37.333333)" id="g10"><g id="g12"><g clip-path="url(#clipPath18)" id="g14"><path id="path20" style="fill:#3e82f1;fill-opacity:1;fill-rule:nonzero;stroke:none" d="M 9,20.636 H 27.64 V 2.18 H 9 Z"/></g></g><g id="g22"><g clip-path="url(#clipPath28)" id="g24"><path id="path30" style="fill:#32a753;fill-opacity:1;fill-rule:nonzero;stroke:none" d="M 0.957,17.29 H 24.956 V 0 H 0.957 Z"/></g></g><g id="g32"><g clip-path="url(#clipPath38)" id="g34"><path id="path40" style="fill:#f9bb00;fill-opacity:1;fill-rule:nonzero;stroke:none" d="M 0,23.042 H 13.964 V 4.958 H 0 Z"/></g></g><g id="g42"><g clip-path="url(#clipPath48)" id="g44"><path id="path50" style="fill:#e74133;fill-opacity:1;fill-rule:nonzero;stroke:none" d="M 0.957,28 H 25.022 V 10.71 H 0.957 Z"/></g></g></g></svg>