<?xml version="1.0" encoding="utf-8"?>
<!-- Generator: Adobe Illustrator 18.0.0, SVG Export Plug-In . SVG Version: 6.00 Build 0)  -->
<!DOCTYPE svg PUBLIC "-//W3C//DTD SVG 1.1//EN" "http://www.w3.org/Graphics/SVG/1.1/DTD/svg11.dtd">
<svg version="1.1" id="Layer_1" xmlns="http://www.w3.org/2000/svg" xmlns:xlink="http://www.w3.org/1999/xlink" x="0px" y="0px"
	 viewBox="0 0 512 512" enable-background="new 0 0 512 512" xml:space="preserve">
<path d="M473.1,170.2c15.1-75.5,15.3-135.3,15.3-137.8c0-3.7-1.5-7.2-4.1-9.8c-2.6-2.6-6.1-4.1-9.8-4.1c-2.5,0-62.3,0.2-137.8,15.3
	c-26.9,5.4-52.4,12-76.3,19.8c-0.2,0-0.3,0.1-0.5,0.2c-15.4,5-30.2,10.6-44.2,16.6c-17.1,7.3-33.1,15.4-47.9,24.1
	c-0.4,0.2-0.9,0.5-1.3,0.8c-23.8,14.1-44.6,30-62,47.5c-34.7,34.7-53.8,80.8-53.8,129.9c0,44.4,15.6,86.4,44.3,119.7l-77.5,77.5
	c-5.4,5.4-5.4,14.2,0,19.7c2.7,2.7,6.3,4.1,9.8,4.1s7.1-1.4,9.8-4.1l77.5-77.5c33.3,28.7,75.3,44.3,119.7,44.3
	c49.1,0,95.2-19.1,129.9-53.8c17.5-17.5,33.3-38.3,47.5-62c0.3-0.4,0.5-0.9,0.8-1.3c8.7-14.8,16.8-30.8,24.1-47.9
	c6-14,11.5-28.8,16.6-44.3c0-0.1,0.1-0.3,0.1-0.4C461,222.6,467.7,197.1,473.1,170.2z M341.5,61.2c51.7-10.4,96.6-13.5,118.6-14.4
	c-0.9,22-4.1,66.9-14.4,118.6c-3.9,19.4-9.1,41-16,63.3l-131.8,0l81-80.9c5.4-5.4,5.4-14.2,0-19.7c-5.4-5.4-14.2-5.4-19.7,0
	l-80.9,80.9V77.2C300.5,70.3,322.1,65.1,341.5,61.2z M392,318.6H207.9l62.2-62.2l150.2,0C412.6,277.4,403.3,298.6,392,318.6z
	 M250.4,86.5v150.2L188.2,299l0-184.1C208.3,103.6,229.4,94.3,250.4,86.5z M78.4,272.5c0-41.6,16.2-80.8,45.7-110.2
	c11.1-11.1,23.3-21.1,36.3-30.1l0,194.6l-45.7,45.7C91.2,344.5,78.4,309.5,78.4,272.5z M344.5,382.8
	c-29.4,29.4-68.6,45.6-110.2,45.6c-37,0-72-12.8-99.9-36.3l45.7-45.7h194.6C365.6,359.4,355.6,371.7,344.5,382.8z"/>
</svg>
