<?xml version="1.0" standalone="no"?>
<!DOCTYPE svg PUBLIC "-//W3C//DTD SVG 20010904//EN"
 "http://www.w3.org/TR/2001/REC-SVG-20010904/DTD/svg10.dtd">
<svg version="1.0" xmlns="http://www.w3.org/2000/svg"
 width="256.000000pt" height="256.000000pt" viewBox="0 0 256.000000 256.000000"
 preserveAspectRatio="xMidYMid meet">
<metadata>
Created by potrace 1.11, written by Peter Selinger 2001-2013
</metadata>
<g transform="translate(0.000000,256.000000) scale(0.100000,-0.100000)"
fill="#000000" stroke="none">
<path d="M1135 2544 c-178 -43 -345 -174 -424 -335 -65 -133 -69 -163 -70
-598 0 -211 -3 -387 -6 -390 -4 -3 -61 -6 -128 -6 l-122 0 0 -160 0 -160 255
0 255 0 0 -429 1 -428 23 -19 c29 -24 53 -24 82 0 l23 19 1 428 0 429 255 0
255 0 0 -428 0 -429 24 -19 c29 -24 53 -24 82 0 l24 19 0 429 0 428 255 0 255
0 1 161 0 160 -124 -1 c-68 0 -125 2 -127 6 -2 3 -5 180 -6 393 -1 436 -4 457
-71 596 -71 147 -207 262 -378 321 -82 27 -246 34 -335 13z"/>
</g>
</svg>
